<svg width="35" height="38" viewBox="0 0 35 38" fill="none" xmlns="http://www.w3.org/2000/svg">
<path d="M25.1562 27.3125V30.875H9.29688C7.99151 30.875 6.73961 30.312 5.81658 29.3099C4.89355 28.3077 4.375 26.9485 4.375 25.5312C4.375 24.114 4.89355 22.7548 5.81658 21.7526C6.73961 20.7505 7.99151 20.1875 9.29688 20.1875H9.84375V17.8125H9.29688C7.41135 17.8125 5.60305 18.6257 4.26979 20.0733C2.93652 21.5208 2.1875 23.4841 2.1875 25.5312C2.1875 27.5784 2.93652 29.5417 4.26979 30.9892C5.60305 32.4368 7.41135 33.25 9.29688 33.25H25.1562V36.8125H33.9062V27.3125H25.1562ZM31.7188 34.4375H27.3438V29.6875H31.7188V34.4375Z" fill="black"/>
<path d="M22.9688 26.125H20.7812V22.5625H14.2188V26.125H12.0312V22.5625C12.0312 21.9326 12.2617 21.3285 12.672 20.8831C13.0822 20.4377 13.6386 20.1875 14.2188 20.1875H20.7812C21.3614 20.1875 21.9178 20.4377 22.328 20.8831C22.7383 21.3285 22.9688 21.9326 22.9688 22.5625V26.125ZM17.5 19C16.851 19 16.2166 18.7911 15.677 18.3996C15.1374 18.0082 14.7169 17.4518 14.4685 16.8008C14.2202 16.1498 14.1552 15.4336 14.2818 14.7425C14.4084 14.0514 14.7209 13.4167 15.1798 12.9184C15.6387 12.4202 16.2234 12.0809 16.8599 11.9435C17.4964 11.806 18.1561 11.8765 18.7557 12.1462C19.3553 12.4158 19.8677 12.8724 20.2283 13.4583C20.5888 14.0441 20.7812 14.7329 20.7812 15.4375C20.7804 16.382 20.4344 17.2876 19.8192 17.9555C19.2041 18.6234 18.37 18.9991 17.5 19ZM17.5 14.25C17.2837 14.25 17.0722 14.3196 16.8923 14.4501C16.7125 14.5806 16.5723 14.7661 16.4895 14.9831C16.4067 15.2001 16.3851 15.4388 16.4273 15.6692C16.4695 15.8995 16.5736 16.1111 16.7266 16.2772C16.8796 16.4433 17.0745 16.5564 17.2866 16.6022C17.4988 16.648 17.7187 16.6245 17.9186 16.5346C18.1184 16.4447 18.2892 16.2925 18.4094 16.0972C18.5296 15.902 18.5938 15.6724 18.5938 15.4375C18.5938 15.1226 18.4785 14.8205 18.2734 14.5978C18.0683 14.3751 17.7901 14.25 17.5 14.25Z" fill="black"/>
<path d="M25.7031 4.75H9.84375V1.1875H1.09375V10.6875H9.84375V7.125H25.7031C27.0085 7.125 28.2604 7.688 29.1834 8.69015C30.1064 9.6923 30.625 11.0515 30.625 12.4688C30.625 13.886 30.1064 15.2452 29.1834 16.2474C28.2604 17.2495 27.0085 17.8125 25.7031 17.8125H25.1562V20.1875H25.7031C27.5886 20.1875 29.3969 19.3743 30.7302 17.9267C32.0635 16.4792 32.8125 14.5159 32.8125 12.4688C32.8125 10.4216 32.0635 8.45832 30.7302 7.01077C29.3969 5.56322 27.5886 4.75 25.7031 4.75ZM7.65625 8.3125H3.28125V3.5625H7.65625V8.3125Z" fill="black"/>
</svg>
