<svg width="32" height="38" viewBox="0 0 32 38" fill="none" xmlns="http://www.w3.org/2000/svg">
<path d="M23 27.3125V30.875H8.5C7.30653 30.875 6.16193 30.312 5.31802 29.3099C4.47411 28.3077 4 26.9485 4 25.5312C4 24.114 4.47411 22.7548 5.31802 21.7526C6.16193 20.7505 7.30653 20.1875 8.5 20.1875H9V17.8125H8.5C6.77609 17.8125 5.12279 18.6257 3.90381 20.0733C2.68482 21.5208 2 23.4841 2 25.5312C2 27.5784 2.68482 29.5417 3.90381 30.9892C5.12279 32.4368 6.77609 33.25 8.5 33.25H23V36.8125H31V27.3125H23ZM29 34.4375H25V29.6875H29V34.4375Z" fill="white"/>
<path d="M21 26.125H19V22.5625H13V26.125H11V22.5625C11 21.9326 11.2107 21.3285 11.5858 20.8831C11.9609 20.4377 12.4696 20.1875 13 20.1875H19C19.5304 20.1875 20.0391 20.4377 20.4142 20.8831C20.7893 21.3285 21 21.9326 21 22.5625V26.125ZM16 19C15.4067 19 14.8266 18.7911 14.3333 18.3996C13.8399 18.0082 13.4554 17.4518 13.2284 16.8008C13.0013 16.1498 12.9419 15.4336 13.0576 14.7425C13.1734 14.0514 13.4591 13.4167 13.8787 12.9184C14.2982 12.4202 14.8328 12.0809 15.4147 11.9435C15.9967 11.806 16.5999 11.8765 17.1481 12.1462C17.6962 12.4158 18.1648 12.8724 18.4944 13.4583C18.8241 14.0441 19 14.7329 19 15.4375C18.9992 16.382 18.6829 17.2876 18.1204 17.9555C17.558 18.6234 16.7954 18.9991 16 19ZM16 14.25C15.8022 14.25 15.6089 14.3196 15.4444 14.4501C15.28 14.5806 15.1518 14.7661 15.0761 14.9831C15.0004 15.2001 14.9806 15.4388 15.0192 15.6692C15.0578 15.8995 15.153 16.1111 15.2929 16.2772C15.4327 16.4433 15.6109 16.5564 15.8049 16.6022C15.9989 16.648 16.2 16.6245 16.3827 16.5346C16.5654 16.4447 16.7216 16.2925 16.8315 16.0972C16.9414 15.902 17 15.6724 17 15.4375C17 15.1226 16.8946 14.8205 16.7071 14.5978C16.5196 14.3751 16.2652 14.25 16 14.25Z" fill="white"/>
<path d="M23.5 4.75H9V1.1875H1V10.6875H9V7.125H23.5C24.6935 7.125 25.8381 7.688 26.682 8.69015C27.5259 9.6923 28 11.0515 28 12.4688C28 13.886 27.5259 15.2452 26.682 16.2474C25.8381 17.2495 24.6935 17.8125 23.5 17.8125H23V20.1875H23.5C25.2239 20.1875 26.8772 19.3743 28.0962 17.9267C29.3152 16.4792 30 14.5159 30 12.4688C30 10.4216 29.3152 8.45832 28.0962 7.01077C26.8772 5.56322 25.2239 4.75 23.5 4.75ZM7 8.3125H3V3.5625H7V8.3125Z" fill="white"/>
</svg>
