<svg width="35" height="36" viewBox="0 0 35 36" fill="none" xmlns="http://www.w3.org/2000/svg">
<rect width="35" height="36" fill="black"/>
<path d="M17.125 0L9.10417 13.5H25.1458L17.125 0ZM17.125 5.76L19.9396 10.5H14.2958L17.125 5.76ZM25.1458 16.5C21.5146 16.5 18.5833 19.515 18.5833 23.25C18.5833 26.985 21.5146 30 25.1458 30C28.7771 30 31.7083 26.985 31.7083 23.25C31.7083 19.515 28.7771 16.5 25.1458 16.5ZM25.1458 27C24.1789 27 23.2516 26.6049 22.5678 25.9016C21.8841 25.1984 21.5 24.2446 21.5 23.25C21.5 22.2554 21.8841 21.3016 22.5678 20.5983C23.2516 19.8951 24.1789 19.5 25.1458 19.5C26.1128 19.5 27.0401 19.8951 27.7238 20.5983C28.4076 21.3016 28.7917 22.2554 28.7917 23.25C28.7917 24.2446 28.4076 25.1984 27.7238 25.9016C27.0401 26.6049 26.1128 27 25.1458 27ZM4 29.25H15.6667V17.25H4V29.25ZM6.91667 20.25H12.75V26.25H6.91667V20.25Z" fill="white"/>
</svg>
