<svg width="40" height="40" viewBox="0 0 40 40" fill="none" xmlns="http://www.w3.org/2000/svg">
<path d="M32.475 33.59L22.0383 23.1533C21.205 23.8633 20.2467 24.4127 19.1633 24.8016C18.08 25.1905 16.9911 25.385 15.8967 25.385C13.2278 25.385 10.9689 24.4611 9.12001 22.6133C7.27112 20.7655 6.34668 18.5072 6.34668 15.8383C6.34668 13.1694 7.27001 10.91 9.11668 9.05995C10.9633 7.20995 13.2211 6.28384 15.89 6.28162C18.5589 6.2794 20.8189 7.20384 22.67 9.05495C24.5211 10.9061 25.4467 13.1655 25.4467 15.8333C25.4467 16.9911 25.2417 18.1116 24.8317 19.195C24.4217 20.2783 23.8828 21.205 23.215 21.975L33.6517 32.41L32.475 33.59ZM15.8983 23.7166C18.1095 23.7166 19.9761 22.9555 21.4983 21.4333C23.0206 19.9111 23.7817 18.0438 23.7817 15.8316C23.7817 13.6194 23.0206 11.7527 21.4983 10.2316C19.9761 8.71051 18.1095 7.9494 15.8983 7.94829C13.6872 7.94718 11.82 8.70829 10.2967 10.2316C8.77335 11.755 8.01224 13.6216 8.01335 15.8316C8.01446 18.0416 8.77557 19.9083 10.2967 21.4316C11.8178 22.955 13.6845 23.7161 15.8967 23.715" fill="white"/>
</svg>
