<svg width="29" height="29" viewBox="0 0 29 29" fill="none" xmlns="http://www.w3.org/2000/svg">
<path d="M13.2917 20.5417H15.7083V13.2917H13.2917V20.5417ZM14.5 10.8751C14.8424 10.8751 15.1295 10.7591 15.3615 10.5271C15.5935 10.2951 15.7091 10.0083 15.7083 9.66675C15.7083 9.32439 15.5923 9.03761 15.3603 8.80642C15.1283 8.57522 14.8415 8.45922 14.5 8.45841C14.1576 8.45841 13.8709 8.57442 13.6397 8.80642C13.4085 9.03842 13.2925 9.32519 13.2917 9.66675C13.2917 10.0091 13.4077 10.2963 13.6397 10.5283C13.8717 10.7603 14.1584 10.8759 14.5 10.8751ZM14.5 26.5834C12.8285 26.5834 11.2576 26.266 9.78749 25.6312C8.31735 24.9965 7.03853 24.1357 5.95103 23.049C4.86353 21.9615 4.0028 20.6827 3.36882 19.2126C2.73485 17.7424 2.41746 16.1716 2.41666 14.5001C2.41666 12.8286 2.73405 11.2577 3.36882 9.78758C4.0036 8.31744 4.86434 7.03862 5.95103 5.95112C7.03853 4.86362 8.31735 4.00289 9.78749 3.36891C11.2576 2.73494 12.8285 2.41755 14.5 2.41675C16.1715 2.41675 17.7424 2.73414 19.2125 3.36891C20.6826 4.00369 21.9614 4.86443 23.0489 5.95112C24.1364 7.03862 24.9976 8.31744 25.6324 9.78758C26.2671 11.2577 26.5841 12.8286 26.5833 14.5001C26.5833 16.1716 26.2659 17.7424 25.6312 19.2126C24.9964 20.6827 24.1356 21.9615 23.0489 23.049C21.9614 24.1365 20.6826 24.9977 19.2125 25.6325C17.7424 26.2672 16.1715 26.5842 14.5 26.5834ZM14.5 24.1667C17.1986 24.1667 19.4844 23.2303 21.3573 21.3574C23.2302 19.4845 24.1667 17.1987 24.1667 14.5001C24.1667 11.8015 23.2302 9.51571 21.3573 7.64279C19.4844 5.76987 17.1986 4.83341 14.5 4.83341C11.8014 4.83341 9.51561 5.76987 7.6427 7.64279C5.76978 9.51571 4.83332 11.8015 4.83332 14.5001C4.83332 17.1987 5.76978 19.4845 7.6427 21.3574C9.51561 23.2303 11.8014 24.1667 14.5 24.1667Z" fill="#F8F8F8"/>
</svg>
