<svg width="29" height="29" viewBox="0 0 29 29" fill="none" xmlns="http://www.w3.org/2000/svg">
<path d="M13.2915 20.5417H15.7082V13.2917H13.2915V20.5417ZM14.4998 10.8751C14.8422 10.8751 15.1294 10.7591 15.3614 10.5271C15.5934 10.2951 15.709 10.0083 15.7082 9.66675C15.7082 9.32439 15.5922 9.03761 15.3602 8.80642C15.1282 8.57522 14.8414 8.45922 14.4998 8.45841C14.1575 8.45841 13.8707 8.57442 13.6395 8.80642C13.4083 9.03842 13.2923 9.32519 13.2915 9.66675C13.2915 10.0091 13.4075 10.2963 13.6395 10.5283C13.8715 10.7603 14.1583 10.8759 14.4998 10.8751ZM14.4998 26.5834C12.8283 26.5834 11.2575 26.266 9.78734 25.6312C8.3172 24.9965 7.03838 24.1357 5.95088 23.049C4.86338 21.9615 4.00264 20.6827 3.36867 19.2126C2.7347 17.7424 2.41731 16.1716 2.4165 14.5001C2.4165 12.8286 2.73389 11.2577 3.36867 9.78758C4.00345 8.31744 4.86418 7.03862 5.95088 5.95112C7.03838 4.86362 8.3172 4.00289 9.78734 3.36891C11.2575 2.73494 12.8283 2.41755 14.4998 2.41675C16.1714 2.41675 17.7422 2.73414 19.2123 3.36891C20.6825 4.00369 21.9613 4.86443 23.0488 5.95112C24.1363 7.03862 24.9974 8.31744 25.6322 9.78758C26.267 11.2577 26.584 12.8286 26.5832 14.5001C26.5832 16.1716 26.2658 17.7424 25.631 19.2126C24.9962 20.6827 24.1355 21.9615 23.0488 23.049C21.9613 24.1365 20.6825 24.9977 19.2123 25.6325C17.7422 26.2672 16.1714 26.5842 14.4998 26.5834ZM14.4998 24.1667C17.1984 24.1667 19.4842 23.2303 21.3571 21.3574C23.23 19.4845 24.1665 17.1987 24.1665 14.5001C24.1665 11.8015 23.23 9.51571 21.3571 7.64279C19.4842 5.76987 17.1984 4.83341 14.4998 4.83341C11.8012 4.83341 9.51546 5.76987 7.64255 7.64279C5.76963 9.51571 4.83317 11.8015 4.83317 14.5001C4.83317 17.1987 5.76963 19.4845 7.64255 21.3574C9.51546 23.2303 11.8012 24.1667 14.4998 24.1667Z" fill="#F8F8F8"/>
</svg>
