<svg width="40" height="45" viewBox="0 0 40 45" fill="none" xmlns="http://www.w3.org/2000/svg">
<path d="M32.475 37.7888L22.0383 26.0475C21.205 26.8463 20.2467 27.4644 19.1633 27.9019C18.08 28.3394 16.9911 28.5581 15.8967 28.5581C13.2278 28.5581 10.9689 27.5188 9.12001 25.44C7.27112 23.3613 6.34668 20.8206 6.34668 17.8181C6.34668 14.8156 7.27001 12.2738 9.11668 10.1925C10.9633 8.11127 13.2211 7.0694 15.89 7.0669C18.5589 7.0644 20.8189 8.1044 22.67 10.1869C24.5211 12.2694 25.4467 14.8113 25.4467 17.8125C25.4467 19.115 25.2417 20.3756 24.8317 21.5944C24.4217 22.8131 23.8828 23.8557 23.215 24.7219L33.6517 36.4613L32.475 37.7888ZM15.8983 26.6813C18.1095 26.6813 19.9761 25.825 21.4983 24.1125C23.0206 22.4 23.7817 20.2994 23.7817 17.8106C23.7817 15.3219 23.0206 13.2219 21.4983 11.5106C19.9761 9.7994 18.1095 8.94315 15.8983 8.9419C13.6872 8.94065 11.82 9.7969 10.2967 11.5106C8.77335 13.2244 8.01224 15.3244 8.01335 17.8106C8.01446 20.2969 8.77557 22.3969 10.2967 24.1107C11.8178 25.8244 13.6845 26.6806 15.8967 26.6794" fill="black"/>
</svg>
