<svg width="29" height="29" viewBox="0 0 29 29" fill="none" xmlns="http://www.w3.org/2000/svg">
<path d="M13.2916 20.5417H15.7083V13.2917H13.2916V20.5417ZM14.5 10.8751C14.8423 10.8751 15.1295 10.7591 15.3615 10.5271C15.5935 10.2951 15.7091 10.0083 15.7083 9.66675C15.7083 9.32439 15.5923 9.03761 15.3603 8.80642C15.1283 8.57522 14.8415 8.45922 14.5 8.45841C14.1576 8.45841 13.8708 8.57442 13.6396 8.80642C13.4084 9.03842 13.2924 9.32519 13.2916 9.66675C13.2916 10.0091 13.4076 10.2963 13.6396 10.5283C13.8716 10.7603 14.1584 10.8759 14.5 10.8751ZM14.5 26.5834C12.8284 26.5834 11.2576 26.266 9.78746 25.6312C8.31732 24.9965 7.0385 24.1357 5.951 23.049C4.8635 21.9615 4.00277 20.6827 3.36879 19.2126C2.73482 17.7424 2.41743 16.1716 2.41663 14.5001C2.41663 12.8286 2.73401 11.2577 3.36879 9.78758C4.00357 8.31744 4.86431 7.03862 5.951 5.95112C7.0385 4.86362 8.31732 4.00289 9.78746 3.36891C11.2576 2.73494 12.8284 2.41755 14.5 2.41675C16.1715 2.41675 17.7423 2.73414 19.2125 3.36891C20.6826 4.00369 21.9614 4.86443 23.0489 5.95112C24.1364 7.03862 24.9976 8.31744 25.6323 9.78758C26.2671 11.2577 26.5841 12.8286 26.5833 14.5001C26.5833 16.1716 26.2659 17.7424 25.6311 19.2126C24.9963 20.6827 24.1356 21.9615 23.0489 23.049C21.9614 24.1365 20.6826 24.9977 19.2125 25.6325C17.7423 26.2672 16.1715 26.5842 14.5 26.5834ZM14.5 24.1667C17.1986 24.1667 19.4843 23.2303 21.3573 21.3574C23.2302 19.4845 24.1666 17.1987 24.1666 14.5001C24.1666 11.8015 23.2302 9.51571 21.3573 7.64279C19.4843 5.76987 17.1986 4.83341 14.5 4.83341C11.8013 4.83341 9.51558 5.76987 7.64267 7.64279C5.76975 9.51571 4.83329 11.8015 4.83329 14.5001C4.83329 17.1987 5.76975 19.4845 7.64267 21.3574C9.51558 23.2303 11.8013 24.1667 14.5 24.1667Z" fill="#F8F8F8"/>
</svg>
