<svg width="45" height="43" viewBox="0 0 45 43" fill="none" xmlns="http://www.w3.org/2000/svg">
<rect width="45" height="43" fill="#100F4D"/>
<path d="M22.5 30.4584C21.5054 30.4584 20.5516 30.0809 19.8483 29.4089C19.1451 28.7369 18.75 27.8254 18.75 26.8751C18.75 24.8863 20.4187 23.2917 22.5 23.2917C23.4946 23.2917 24.4484 23.6693 25.1516 24.3413C25.8549 25.0133 26.25 25.9247 26.25 26.8751C26.25 27.8254 25.8549 28.7369 25.1516 29.4089C24.4484 30.0809 23.4946 30.4584 22.5 30.4584ZM33.75 35.8334V17.9167H11.25V35.8334H33.75ZM33.75 14.3334C34.7446 14.3334 35.6984 14.7109 36.4016 15.3829C37.1049 16.055 37.5 16.9664 37.5 17.9167V35.8334C37.5 36.7838 37.1049 37.6952 36.4016 38.3672C35.6984 39.0392 34.7446 39.4167 33.75 39.4167H11.25C10.2554 39.4167 9.30161 39.0392 8.59835 38.3672C7.89509 37.6952 7.5 36.7838 7.5 35.8334V17.9167C7.5 15.928 9.16875 14.3334 11.25 14.3334H13.125V10.7501C13.125 8.37418 14.1127 6.0956 15.8709 4.41558C17.629 2.73557 20.0136 1.79175 22.5 1.79175C23.7311 1.79175 24.9502 2.02346 26.0877 2.47366C27.2251 2.92386 28.2586 3.58372 29.1291 4.41558C29.9997 5.24744 30.6902 6.235 31.1614 7.32188C31.6325 8.40875 31.875 9.57366 31.875 10.7501V14.3334H33.75ZM22.5 5.37508C21.0082 5.37508 19.5774 5.94137 18.5225 6.94938C17.4676 7.95739 16.875 9.32454 16.875 10.7501V14.3334H28.125V10.7501C28.125 9.32454 27.5324 7.95739 26.4775 6.94938C25.4226 5.94137 23.9918 5.37508 22.5 5.37508Z" fill="white"/>
</svg>
